<?xml version="1.0" encoding="UTF-8"?><svg id="Layer_1" xmlns="http://www.w3.org/2000/svg" viewBox="0 0 841.89 595.28"><defs><style>.cls-1{fill:#fff;}</style></defs><rect class="cls-1" x="423.12" y="-57.58" width="70.41" height="376.4" transform="translate(327.7 588.94) rotate(-90)"/><rect class="cls-1" x="189.36" y="99.96" width="70.41" height="61.33" transform="translate(93.95 355.19) rotate(-90)"/><rect class="cls-1" x="337.37" y="39.3" width="70.41" height="357.35" transform="translate(590.56 -154.6) rotate(90)"/><rect class="cls-1" x="572.04" y="178.54" width="70.41" height="78.88" transform="translate(825.22 -389.26) rotate(90)"/><rect class="cls-1" x="298.76" y="167.43" width="70.41" height="280.12" transform="translate(641.45 -26.48) rotate(90)"/><rect class="cls-1" x="533.25" y="227.95" width="70.41" height="159.07" transform="translate(875.94 -260.96) rotate(90)"/><path class="cls-1" d="M204.71,419.96c0,2.47,.64,4.37,1.92,5.71,1.28,1.34,3.12,2.01,5.53,2.01s4.2-.63,5.46-1.87c1.26-1.25,1.9-3.05,1.9-5.4l.63,7.77c-.9,2.5-2.28,4.46-4.13,5.89-1.85,1.43-4.15,2.14-6.89,2.14-4.31,0-7.6-1.38-9.89-4.15-2.29-2.77-3.43-6.74-3.43-11.92v-31.48h8.9v31.3Zm14.81-31.3h8.85v46.88h-8.85v-46.88Z"/><path class="cls-1" d="M240.34,388.67h8.9v46.88h-8.9v-46.88Zm24.25,16.39c0-2.86-.67-5.04-2.01-6.53-1.34-1.49-3.26-2.24-5.76-2.24s-4.35,.71-5.64,2.12-1.94,3.46-1.94,6.14l-.95-7.86c1.23-2.89,2.9-5.08,4.99-6.57,2.09-1.49,4.45-2.23,7.07-2.23,4.21,0,7.46,1.38,9.73,4.13,2.27,2.75,3.41,6.68,3.41,11.76v31.75h-8.9v-30.48Z"/><path class="cls-1" d="M285.41,370.19h8.9v8.85h-8.9v-8.85Zm0,18.47h8.9v46.88h-8.9v-46.88Z"/><path class="cls-1" d="M330.3,388.67h9.08l-15.17,46.88h-6.86l-15.17-46.88h9.08l9.53,34.01,9.53-34.01Z"/><path class="cls-1" d="M353.25,434.07c-2.59-1.43-4.57-3.51-5.94-6.23-1.37-2.72-2.05-6.03-2.05-9.91v-10.84c0-4.03,.66-7.48,1.99-10.34,1.32-2.86,3.24-5.04,5.76-6.55,2.51-1.51,5.55-2.26,9.1-2.26s6.37,.77,8.81,2.33c2.44,1.55,4.3,3.82,5.58,6.82,1.28,2.99,1.92,6.59,1.92,10.77v7.81h-26.82v-7.32h18.33v-2.57c-.03-3.07-.74-5.48-2.12-7.23-1.38-1.75-3.28-2.62-5.69-2.62-2.65,0-4.7,.93-6.16,2.8s-2.19,4.49-2.19,7.86v11.56c0,3.07,.78,5.45,2.35,7.13,1.56,1.69,3.76,2.53,6.59,2.53,1.84,0,3.34-.43,4.52-1.29,1.17-.86,2.02-2.08,2.53-3.68l8.13,2.62c-.87,3.58-2.59,6.27-5.15,8.06-2.56,1.79-5.9,2.69-10.03,2.69-3.7,0-6.85-.71-9.44-2.14Z"/><path class="cls-1" d="M389.28,388.67h8.9v46.88h-8.9v-46.88Zm21.72,8.29c-.75-.26-1.63-.38-2.62-.38-3.19,0-5.68,.83-7.47,2.48-1.79,1.66-2.7,3.96-2.73,6.91l-.95-9.12c1.47-2.83,3.39-5.03,5.74-6.59s4.94-2.35,7.77-2.35c1.05,0,2.02,.16,2.89,.47,.87,.32,1.63,.78,2.26,1.38l-2.98,8.35c-.51-.51-1.14-.9-1.9-1.15Z"/><path class="cls-1" d="M428.73,435c-2.33-.81-4.25-2.06-5.74-3.75-1.49-1.69-2.57-3.76-3.23-6.23l7.9-3.52c.9,2.26,2.12,3.95,3.66,5.08,1.54,1.13,3.4,1.69,5.6,1.69,2.74,0,4.83-.56,6.28-1.67,1.44-1.11,2.17-2.71,2.17-4.79,0-1.38-.4-2.46-1.2-3.23-.8-.77-1.78-1.33-2.96-1.69-1.17-.36-2.83-.74-4.97-1.13-.18-.03-.37-.06-.56-.09-.2-.03-.41-.06-.66-.09-.09-.06-.18-.1-.27-.11-.09-.01-.2-.02-.32-.02-2.62-.51-4.85-1.17-6.68-1.99-1.84-.81-3.36-2.12-4.58-3.91-1.22-1.79-1.83-4.22-1.83-7.29s.61-5.71,1.83-7.83c1.22-2.12,3.01-3.73,5.37-4.83,2.36-1.1,5.25-1.65,8.65-1.65,2.89,0,5.4,.37,7.54,1.11,2.14,.74,3.91,1.85,5.31,3.34s2.46,3.36,3.18,5.62l-7.99,3.52c-.78-1.9-1.84-3.31-3.18-4.25-1.34-.93-2.96-1.4-4.85-1.4-2.38,0-4.18,.52-5.4,1.56-1.22,1.04-1.83,2.58-1.83,4.63,0,1.3,.38,2.3,1.13,3.03,.75,.72,1.72,1.26,2.89,1.6,1.17,.35,2.81,.69,4.92,1.02,.03,.03,.09,.05,.18,.05h.23c.06,.03,.14,.05,.23,.07,.09,.01,.17,.02,.23,.02,2.89,.51,5.31,1.15,7.27,1.9,1.96,.75,3.61,2.09,4.94,4.02,1.34,1.93,2.01,4.61,2.01,8.04,0,3.1-.65,5.73-1.96,7.88-1.31,2.15-3.24,3.78-5.78,4.88-2.54,1.1-5.65,1.65-9.33,1.65-3.13,0-5.86-.41-8.2-1.22Z"/><path class="cls-1" d="M464.07,370.19h8.9v8.85h-8.9v-8.85Zm0,18.47h8.9v46.88h-8.9v-46.88Z"/><path class="cls-1" d="M489.85,434.41c-1.99-1.29-3.5-3.18-4.54-5.64-1.04-2.47-1.56-5.45-1.56-8.94v-15.17c0-3.55,.51-6.59,1.54-9.1,1.02-2.51,2.51-4.42,4.47-5.74,1.96-1.31,4.3-1.96,7.04-1.96,2.44,0,4.68,.72,6.73,2.17,2.05,1.44,3.7,3.48,4.97,6.1l-.95,8.13c0-1.72-.29-3.19-.88-4.43-.59-1.23-1.42-2.18-2.51-2.82-1.08-.65-2.41-.97-3.97-.97-2.38,0-4.23,.78-5.55,2.35-1.33,1.57-1.99,3.76-1.99,6.59v14.68c0,2.71,.66,4.81,1.99,6.3,1.32,1.49,3.18,2.23,5.55,2.23,1.56,0,2.89-.32,3.97-.97,1.08-.65,1.92-1.59,2.51-2.82,.59-1.23,.88-2.71,.88-4.42l.63,8.22c-.9,2.47-2.31,4.45-4.22,5.94s-4.22,2.23-6.93,2.23-5.19-.65-7.18-1.94Zm17.7-64.53h8.9v65.66h-8.9v-65.66Z"/><path class="cls-1" d="M530.52,432.79c-2.39-2.29-3.59-5.75-3.59-10.39,0-4.94,1.26-8.64,3.77-11.11,2.51-2.47,6.31-3.7,11.4-3.7h9.66l.63,7.54h-10.25c-2.26,0-3.95,.6-5.08,1.8-1.13,1.21-1.69,3.03-1.69,5.47,0,2.11,.62,3.67,1.87,4.7,1.25,1.02,3.14,1.54,5.67,1.54,2.83,0,4.94-.49,6.35-1.47,1.4-.98,2.1-2.46,2.1-4.45l.95,5.46c-.42,1.81-1.11,3.3-2.05,4.49-.95,1.19-2.17,2.08-3.66,2.66-1.49,.59-3.24,.88-5.26,.88-4.82,0-8.42-1.14-10.82-3.43Zm20.84-29.26c0-2.47-.66-4.39-1.99-5.76-1.33-1.37-3.19-2.06-5.6-2.06-1.75,0-3.29,.41-4.63,1.22s-2.36,1.94-3.05,3.39l-7.54-2.3c.9-3.19,2.67-5.67,5.31-7.45,2.63-1.78,5.92-2.66,9.87-2.66,3.4,0,6.31,.61,8.74,1.83,2.42,1.22,4.27,2.98,5.53,5.28,1.26,2.3,1.9,5.08,1.9,8.33v32.2h-8.53v-32.02Z"/><path class="cls-1" d="M576.83,434.41c-1.99-1.29-3.5-3.18-4.54-5.64-1.04-2.47-1.56-5.45-1.56-8.94v-15.17c0-3.55,.51-6.59,1.54-9.1,1.02-2.51,2.51-4.42,4.47-5.74,1.96-1.31,4.3-1.96,7.04-1.96,2.44,0,4.68,.72,6.73,2.17,2.05,1.44,3.7,3.48,4.97,6.1l-.95,8.13c0-1.72-.29-3.19-.88-4.43-.59-1.23-1.42-2.18-2.51-2.82-1.08-.65-2.41-.97-3.97-.97-2.38,0-4.23,.78-5.55,2.35-1.33,1.57-1.99,3.76-1.99,6.59v14.68c0,2.71,.66,4.81,1.99,6.3,1.32,1.49,3.18,2.23,5.55,2.23,1.56,0,2.89-.32,3.97-.97,1.08-.65,1.92-1.59,2.51-2.82,.59-1.23,.88-2.71,.88-4.42l.63,8.22c-.9,2.47-2.31,4.45-4.22,5.94s-4.22,2.23-6.93,2.23-5.19-.65-7.18-1.94Zm17.7-64.53h8.9v65.66h-8.9v-65.66Z"/><path class="cls-1" d="M622.26,434.07c-2.59-1.43-4.57-3.51-5.94-6.23-1.37-2.72-2.05-6.03-2.05-9.91v-10.84c0-4.03,.66-7.48,1.99-10.34,1.32-2.86,3.24-5.04,5.76-6.55,2.51-1.51,5.55-2.26,9.1-2.26s6.37,.77,8.81,2.33c2.44,1.55,4.3,3.82,5.58,6.82,1.28,2.99,1.92,6.59,1.92,10.77v7.81h-26.82v-7.32h18.33v-2.57c-.03-3.07-.74-5.48-2.12-7.23-1.38-1.75-3.28-2.62-5.69-2.62-2.65,0-4.7,.93-6.16,2.8s-2.19,4.49-2.19,7.86v11.56c0,3.07,.78,5.45,2.35,7.13,1.56,1.69,3.76,2.53,6.59,2.53,1.84,0,3.34-.43,4.52-1.29,1.17-.86,2.02-2.08,2.53-3.68l8.13,2.62c-.87,3.58-2.59,6.27-5.15,8.06-2.56,1.79-5.9,2.69-10.03,2.69-3.7,0-6.85-.71-9.44-2.14Z"/><path class="cls-1" d="M207.02,519.23c-3.55-1.91-6.26-4.7-8.13-8.35-1.87-3.66-2.8-8.08-2.8-13.25v-18.02c0-5.18,.93-9.6,2.8-13.25,1.87-3.66,4.58-6.45,8.13-8.38s7.83-2.89,12.83-2.89c4.12,0,7.81,.89,11.06,2.66,3.25,1.78,5.94,4.36,8.06,7.75,2.12,3.39,3.59,7.47,4.4,12.26h-12.83c-.48-2.17-1.23-4.02-2.23-5.55-1.01-1.54-2.23-2.71-3.66-3.52-1.43-.81-3.03-1.22-4.81-1.22-2.32,0-4.29,.48-5.92,1.42-1.63,.95-2.87,2.33-3.73,4.15-.86,1.82-1.29,4.01-1.29,6.57v18.02c0,2.56,.43,4.74,1.29,6.55,.86,1.81,2.1,3.18,3.73,4.13,1.63,.95,3.6,1.42,5.92,1.42,1.81,0,3.43-.4,4.88-1.2,1.44-.8,2.66-1.97,3.66-3.5,.99-1.54,1.72-3.4,2.17-5.6h12.83c-.84,4.79-2.33,8.87-4.45,12.26s-4.8,5.97-8.04,7.74c-3.24,1.78-6.92,2.66-11.04,2.66-5,0-9.27-.95-12.83-2.87Z"/><path class="cls-1" d="M303.07,519.1c-3.63-2-6.43-4.83-8.42-8.49-1.99-3.66-2.98-7.9-2.98-12.71v-18.6c0-4.82,.99-9.05,2.98-12.71,1.99-3.66,4.79-6.49,8.42-8.49,3.63-2,7.82-3,12.58-3s8.95,1,12.58,3c3.63,2,6.44,4.83,8.42,8.49,1.99,3.66,2.98,7.9,2.98,12.71v18.6c0,4.82-.99,9.06-2.98,12.71-1.99,3.66-4.79,6.49-8.42,8.49-3.63,2-7.82,3-12.58,3s-8.95-1-12.58-3Zm18.45-10.79c1.69-.95,2.99-2.3,3.91-4.04,.92-1.75,1.38-3.76,1.38-6.05v-19.24c0-2.29-.46-4.3-1.38-6.05-.92-1.75-2.22-3.09-3.91-4.04-1.69-.95-3.64-1.42-5.87-1.42s-4.19,.48-5.87,1.42c-1.69,.95-2.99,2.29-3.91,4.04-.92,1.75-1.38,3.76-1.38,6.05v19.24c0,2.29,.46,4.3,1.38,6.05,.92,1.75,2.22,3.09,3.91,4.04,1.69,.95,3.64,1.42,5.87,1.42s4.18-.47,5.87-1.42Z"/><path class="cls-1" d="M429.25,455.76h16.3v65.66h-11.25v-50.98l.45,2.89-12.55,40.78h-10.93l-12.55-39.88,.45-3.79v50.98h-11.24v-65.66h16.3l12.51,44.26,12.51-44.26Z"/><path class="cls-1" d="M504.82,519.23c-3.58-1.91-6.31-4.7-8.17-8.35-1.87-3.66-2.8-8.06-2.8-13.21v-41.91h12.37v42.22c0,3.76,1.01,6.68,3.03,8.76,2.02,2.08,4.86,3.12,8.54,3.12s6.57-1.04,8.6-3.12c2.03-2.08,3.05-5,3.05-8.76v-42.22h12.37v41.91c0,5.15-.94,9.55-2.82,13.21-1.88,3.66-4.62,6.44-8.22,8.35-3.6,1.91-7.92,2.87-12.98,2.87s-9.38-.95-12.96-2.87Z"/><path class="cls-1" d="M631.42,455.76h16.3v65.66h-11.25v-50.98l.45,2.89-12.55,40.78h-10.93l-12.55-39.88,.45-3.79v50.98h-11.24v-65.66h16.3l12.51,44.26,12.51-44.26Z"/></svg>